%TF.GenerationSoftware,KiCad,Pcbnew,(6.0.5)*%
%TF.CreationDate,2022-06-15T21:14:50-03:00*%
%TF.ProjectId,transmitter-pcb,7472616e-736d-4697-9474-65722d706362,rev?*%
%TF.SameCoordinates,Original*%
%TF.FileFunction,Soldermask,Top*%
%TF.FilePolarity,Negative*%
%FSLAX46Y46*%
G04 Gerber Fmt 4.6, Leading zero omitted, Abs format (unit mm)*
G04 Created by KiCad (PCBNEW (6.0.5)) date 2022-06-15 21:14:50*
%MOMM*%
%LPD*%
G01*
G04 APERTURE LIST*
G04 Aperture macros list*
%AMRoundRect*
0 Rectangle with rounded corners*
0 $1 Rounding radius*
0 $2 $3 $4 $5 $6 $7 $8 $9 X,Y pos of 4 corners*
0 Add a 4 corners polygon primitive as box body*
4,1,4,$2,$3,$4,$5,$6,$7,$8,$9,$2,$3,0*
0 Add four circle primitives for the rounded corners*
1,1,$1+$1,$2,$3*
1,1,$1+$1,$4,$5*
1,1,$1+$1,$6,$7*
1,1,$1+$1,$8,$9*
0 Add four rect primitives between the rounded corners*
20,1,$1+$1,$2,$3,$4,$5,0*
20,1,$1+$1,$4,$5,$6,$7,0*
20,1,$1+$1,$6,$7,$8,$9,0*
20,1,$1+$1,$8,$9,$2,$3,0*%
G04 Aperture macros list end*
%ADD10RoundRect,0.150000X-0.825000X-0.150000X0.825000X-0.150000X0.825000X0.150000X-0.825000X0.150000X0*%
%ADD11O,1.600000X1.600000*%
%ADD12R,1.600000X1.600000*%
%ADD13R,1.700000X1.700000*%
%ADD14C,1.700000*%
%ADD15RoundRect,0.250000X0.550000X0.550000X-0.550000X0.550000X-0.550000X-0.550000X0.550000X-0.550000X0*%
%ADD16C,1.600000*%
%ADD17R,1.600000X2.200000*%
G04 APERTURE END LIST*
D10*
%TO.C,U1*%
X137095000Y-112395000D03*
X137095000Y-113665000D03*
X137095000Y-114935000D03*
X137095000Y-116205000D03*
X132145000Y-116205000D03*
X132145000Y-114935000D03*
X132145000Y-113665000D03*
X132145000Y-112395000D03*
%TD*%
D11*
%TO.C,A1*%
X129540000Y-101600000D03*
X127000000Y-101600000D03*
X124460000Y-101600000D03*
X121920000Y-101600000D03*
X119380000Y-101600000D03*
X116840000Y-101600000D03*
X114300000Y-101600000D03*
X111760000Y-101600000D03*
X109220000Y-101600000D03*
X106680000Y-101600000D03*
X104140000Y-101600000D03*
X101600000Y-101600000D03*
X99060000Y-101600000D03*
X96520000Y-101600000D03*
X93980000Y-101600000D03*
X93980000Y-86360000D03*
X96520000Y-86360000D03*
X99060000Y-86360000D03*
X101600000Y-86360000D03*
X104140000Y-86360000D03*
X106680000Y-86360000D03*
X109220000Y-86360000D03*
X111760000Y-86360000D03*
X114300000Y-86360000D03*
X116840000Y-86360000D03*
X119380000Y-86360000D03*
X121920000Y-86360000D03*
X124460000Y-86360000D03*
X127000000Y-86360000D03*
D12*
X129540000Y-86360000D03*
%TD*%
D13*
%TO.C,U2*%
X170480000Y-99605000D03*
D14*
X167940000Y-99605000D03*
X170480000Y-97065000D03*
X167940000Y-97065000D03*
X170480000Y-94525000D03*
X167940000Y-94525000D03*
X170480000Y-91985000D03*
X167940000Y-91985000D03*
%TD*%
D15*
%TO.C,J1*%
X134620000Y-121920000D03*
D16*
X131020000Y-121920000D03*
%TD*%
D17*
%TO.C,C1*%
X144780000Y-112800000D03*
X144780000Y-115800000D03*
%TD*%
M02*
