%TF.GenerationSoftware,KiCad,Pcbnew,(6.0.5)*%
%TF.CreationDate,2022-06-15T21:14:50-03:00*%
%TF.ProjectId,transmitter-pcb,7472616e-736d-4697-9474-65722d706362,rev?*%
%TF.SameCoordinates,Original*%
%TF.FileFunction,Copper,L1,Top*%
%TF.FilePolarity,Positive*%
%FSLAX46Y46*%
G04 Gerber Fmt 4.6, Leading zero omitted, Abs format (unit mm)*
G04 Created by KiCad (PCBNEW (6.0.5)) date 2022-06-15 21:14:50*
%MOMM*%
%LPD*%
G01*
G04 APERTURE LIST*
G04 Aperture macros list*
%AMRoundRect*
0 Rectangle with rounded corners*
0 $1 Rounding radius*
0 $2 $3 $4 $5 $6 $7 $8 $9 X,Y pos of 4 corners*
0 Add a 4 corners polygon primitive as box body*
4,1,4,$2,$3,$4,$5,$6,$7,$8,$9,$2,$3,0*
0 Add four circle primitives for the rounded corners*
1,1,$1+$1,$2,$3*
1,1,$1+$1,$4,$5*
1,1,$1+$1,$6,$7*
1,1,$1+$1,$8,$9*
0 Add four rect primitives between the rounded corners*
20,1,$1+$1,$2,$3,$4,$5,0*
20,1,$1+$1,$4,$5,$6,$7,0*
20,1,$1+$1,$6,$7,$8,$9,0*
20,1,$1+$1,$8,$9,$2,$3,0*%
G04 Aperture macros list end*
%TA.AperFunction,SMDPad,CuDef*%
%ADD10RoundRect,0.150000X-0.825000X-0.150000X0.825000X-0.150000X0.825000X0.150000X-0.825000X0.150000X0*%
%TD*%
%TA.AperFunction,ComponentPad*%
%ADD11O,1.600000X1.600000*%
%TD*%
%TA.AperFunction,ComponentPad*%
%ADD12R,1.600000X1.600000*%
%TD*%
%TA.AperFunction,ComponentPad*%
%ADD13R,1.700000X1.700000*%
%TD*%
%TA.AperFunction,ComponentPad*%
%ADD14C,1.700000*%
%TD*%
%TA.AperFunction,ComponentPad*%
%ADD15RoundRect,0.250000X0.550000X0.550000X-0.550000X0.550000X-0.550000X-0.550000X0.550000X-0.550000X0*%
%TD*%
%TA.AperFunction,ComponentPad*%
%ADD16C,1.600000*%
%TD*%
%TA.AperFunction,SMDPad,CuDef*%
%ADD17R,1.600000X2.200000*%
%TD*%
%TA.AperFunction,Conductor*%
%ADD18C,0.250000*%
%TD*%
G04 APERTURE END LIST*
D10*
%TO.P,U1,8,IN*%
%TO.N,Net-(A1-Pad30)*%
X137095000Y-112395000D03*
%TO.P,U1,7,GND*%
%TO.N,Net-(C1-Pad2)*%
X137095000Y-113665000D03*
%TO.P,U1,6,GND*%
X137095000Y-114935000D03*
%TO.P,U1,5,NC*%
%TO.N,unconnected-(U1-Pad5)*%
X137095000Y-116205000D03*
%TO.P,U1,4,NC*%
%TO.N,unconnected-(U1-Pad4)*%
X132145000Y-116205000D03*
%TO.P,U1,3,GND*%
%TO.N,Net-(C1-Pad2)*%
X132145000Y-114935000D03*
%TO.P,U1,2,GND*%
X132145000Y-113665000D03*
%TO.P,U1,1,OUT*%
%TO.N,Net-(U1-Pad1)*%
X132145000Y-112395000D03*
%TD*%
D11*
%TO.P,A1,30,VIN*%
%TO.N,Net-(A1-Pad30)*%
X129540000Y-101600000D03*
%TO.P,A1,29,GND*%
%TO.N,Net-(A1-Pad29)*%
X127000000Y-101600000D03*
%TO.P,A1,28,~{RESET}*%
%TO.N,unconnected-(A1-Pad28)*%
X124460000Y-101600000D03*
%TO.P,A1,27,+5V*%
%TO.N,unconnected-(A1-Pad27)*%
X121920000Y-101600000D03*
%TO.P,A1,26,A7*%
%TO.N,unconnected-(A1-Pad26)*%
X119380000Y-101600000D03*
%TO.P,A1,25,A6*%
%TO.N,unconnected-(A1-Pad25)*%
X116840000Y-101600000D03*
%TO.P,A1,24,SCL/A5*%
%TO.N,unconnected-(A1-Pad24)*%
X114300000Y-101600000D03*
%TO.P,A1,23,SDA/A4*%
%TO.N,unconnected-(A1-Pad23)*%
X111760000Y-101600000D03*
%TO.P,A1,22,A3*%
%TO.N,unconnected-(A1-Pad22)*%
X109220000Y-101600000D03*
%TO.P,A1,21,A2*%
%TO.N,unconnected-(A1-Pad21)*%
X106680000Y-101600000D03*
%TO.P,A1,20,A1*%
%TO.N,unconnected-(A1-Pad20)*%
X104140000Y-101600000D03*
%TO.P,A1,19,A0*%
%TO.N,unconnected-(A1-Pad19)*%
X101600000Y-101600000D03*
%TO.P,A1,18,AREF*%
%TO.N,unconnected-(A1-Pad18)*%
X99060000Y-101600000D03*
%TO.P,A1,17,3V3*%
%TO.N,unconnected-(A1-Pad17)*%
X96520000Y-101600000D03*
%TO.P,A1,16,SCK*%
%TO.N,Net-(A1-Pad16)*%
X93980000Y-101600000D03*
%TO.P,A1,15,MISO*%
%TO.N,Net-(A1-Pad15)*%
X93980000Y-86360000D03*
%TO.P,A1,14,MOSI*%
%TO.N,Net-(A1-Pad14)*%
X96520000Y-86360000D03*
%TO.P,A1,13,D10*%
%TO.N,unconnected-(A1-Pad13)*%
X99060000Y-86360000D03*
%TO.P,A1,12,D9*%
%TO.N,unconnected-(A1-Pad12)*%
X101600000Y-86360000D03*
%TO.P,A1,11,D8*%
%TO.N,Net-(A1-Pad11)*%
X104140000Y-86360000D03*
%TO.P,A1,10,D7*%
%TO.N,Net-(A1-Pad10)*%
X106680000Y-86360000D03*
%TO.P,A1,9,D6*%
%TO.N,unconnected-(A1-Pad9)*%
X109220000Y-86360000D03*
%TO.P,A1,8,D5*%
%TO.N,unconnected-(A1-Pad8)*%
X111760000Y-86360000D03*
%TO.P,A1,7,D4*%
%TO.N,unconnected-(A1-Pad7)*%
X114300000Y-86360000D03*
%TO.P,A1,6,D3*%
%TO.N,unconnected-(A1-Pad6)*%
X116840000Y-86360000D03*
%TO.P,A1,5,D2*%
%TO.N,unconnected-(A1-Pad5)*%
X119380000Y-86360000D03*
%TO.P,A1,4,GND*%
%TO.N,Net-(A1-Pad29)*%
X121920000Y-86360000D03*
%TO.P,A1,3,~{RESET}*%
%TO.N,unconnected-(A1-Pad3)*%
X124460000Y-86360000D03*
%TO.P,A1,2,RX1*%
%TO.N,unconnected-(A1-Pad2)*%
X127000000Y-86360000D03*
D12*
%TO.P,A1,1,TX1*%
%TO.N,unconnected-(A1-Pad1)*%
X129540000Y-86360000D03*
%TD*%
D13*
%TO.P,U2,1,GND*%
%TO.N,Net-(C1-Pad2)*%
X170480000Y-99605000D03*
D14*
%TO.P,U2,2,VCC*%
%TO.N,Net-(U1-Pad1)*%
X167940000Y-99605000D03*
%TO.P,U2,3,CE*%
%TO.N,Net-(A1-Pad10)*%
X170480000Y-97065000D03*
%TO.P,U2,4,CSN*%
%TO.N,Net-(A1-Pad11)*%
X167940000Y-97065000D03*
%TO.P,U2,5,SCK*%
%TO.N,Net-(A1-Pad16)*%
X170480000Y-94525000D03*
%TO.P,U2,6,MOSI*%
%TO.N,Net-(A1-Pad14)*%
X167940000Y-94525000D03*
%TO.P,U2,7,MISO*%
%TO.N,Net-(A1-Pad15)*%
X170480000Y-91985000D03*
%TO.P,U2,8,IRQ*%
%TO.N,unconnected-(U2-Pad8)*%
X167940000Y-91985000D03*
%TD*%
D15*
%TO.P,J1,1,Pin_1*%
%TO.N,Net-(A1-Pad30)*%
X134620000Y-121920000D03*
D16*
%TO.P,J1,2,Pin_2*%
%TO.N,Net-(C1-Pad2)*%
X131020000Y-121920000D03*
%TD*%
D17*
%TO.P,C1,2*%
%TO.N,Net-(C1-Pad2)*%
X144780000Y-112800000D03*
%TO.P,C1,1*%
%TO.N,Net-(A1-Pad30)*%
X144780000Y-115800000D03*
%TD*%
D18*
%TO.N,Net-(C1-Pad2)*%
X136525000Y-113665000D02*
X137095000Y-113665000D01*
X134620000Y-111760000D02*
X136525000Y-113665000D01*
X136710480Y-109669520D02*
X134620000Y-111760000D01*
X139700000Y-109669520D02*
X136710480Y-109669520D01*
X142830480Y-112800000D02*
X139700000Y-109669520D01*
X144780000Y-112800000D02*
X142830480Y-112800000D01*
%TO.N,Net-(A1-Pad30)*%
X140740000Y-115340000D02*
X140740000Y-115800000D01*
X137795000Y-112395000D02*
X140740000Y-115340000D01*
X137095000Y-112395000D02*
X137795000Y-112395000D01*
X129540000Y-124460000D02*
X134620000Y-124460000D01*
X124460000Y-119380000D02*
X129540000Y-124460000D01*
X124460000Y-116840000D02*
X124460000Y-119380000D01*
X129540000Y-111760000D02*
X124460000Y-116840000D01*
X134620000Y-124460000D02*
X134620000Y-121920000D01*
X129540000Y-101600000D02*
X129540000Y-111760000D01*
%TO.N,Net-(C1-Pad2)*%
X129540000Y-114300000D02*
X128905000Y-114935000D01*
X131510000Y-114300000D02*
X129540000Y-114300000D01*
X132145000Y-113665000D02*
X131510000Y-114300000D01*
X132145000Y-114935000D02*
X137095000Y-114935000D01*
X128905000Y-114935000D02*
X132145000Y-114935000D01*
X127000000Y-116840000D02*
X128905000Y-114935000D01*
X127000000Y-117900000D02*
X127000000Y-116840000D01*
X131020000Y-121920000D02*
X127000000Y-117900000D01*
X144780000Y-112800000D02*
X143915000Y-113665000D01*
%TO.N,Net-(U1-Pad1)*%
X132080000Y-112330000D02*
X132080000Y-111760000D01*
X132080000Y-111760000D02*
X134620000Y-109220000D01*
X132145000Y-112395000D02*
X132080000Y-112330000D01*
%TO.N,Net-(C1-Pad2)*%
X137095000Y-113665000D02*
X137095000Y-114935000D01*
%TO.N,Net-(A1-Pad16)*%
X175260000Y-93980000D02*
X174715000Y-94525000D01*
X88900000Y-81280000D02*
X172720000Y-81280000D01*
X175260000Y-83820000D02*
X175260000Y-93980000D01*
X86360000Y-96520000D02*
X86360000Y-83820000D01*
X91440000Y-101600000D02*
X86360000Y-96520000D01*
X172720000Y-81280000D02*
X175260000Y-83820000D01*
X93980000Y-101600000D02*
X91440000Y-101600000D01*
X174715000Y-94525000D02*
X170480000Y-94525000D01*
X86360000Y-83820000D02*
X88900000Y-81280000D01*
%TO.N,Net-(A1-Pad15)*%
X169730480Y-83370480D02*
X170480000Y-84120000D01*
X170480000Y-84120000D02*
X170480000Y-91985000D01*
X96969520Y-83370480D02*
X169730480Y-83370480D01*
X93980000Y-86360000D02*
X96969520Y-83370480D01*
%TO.N,Net-(A1-Pad14)*%
X165645000Y-94525000D02*
X167940000Y-94525000D01*
X154940000Y-83820000D02*
X165645000Y-94525000D01*
X99060000Y-83820000D02*
X154940000Y-83820000D01*
X96520000Y-86360000D02*
X99060000Y-83820000D01*
%TO.N,Net-(A1-Pad10)*%
X169305489Y-95890489D02*
X170480000Y-97065000D01*
X116210489Y-95890489D02*
X169305489Y-95890489D01*
X106680000Y-86360000D02*
X116210489Y-95890489D01*
%TO.N,Net-(A1-Pad11)*%
X114845000Y-97065000D02*
X167940000Y-97065000D01*
X104140000Y-86360000D02*
X114845000Y-97065000D01*
%TO.N,Net-(C1-Pad2)*%
X144780000Y-112800000D02*
X145820000Y-112800000D01*
%TO.N,Net-(A1-Pad30)*%
X140740000Y-115800000D02*
X134620000Y-121920000D01*
X144780000Y-115800000D02*
X140740000Y-115800000D01*
%TO.N,Net-(U1-Pad1)*%
X158325000Y-109220000D02*
X134620000Y-109220000D01*
X167940000Y-99605000D02*
X158325000Y-109220000D01*
%TO.N,Net-(C1-Pad2)*%
X158385000Y-112800000D02*
X144780000Y-112800000D01*
X170480000Y-100705000D02*
X158385000Y-112800000D01*
X170480000Y-99605000D02*
X170480000Y-100705000D01*
%TD*%
M02*
